<?xml version="1.0" encoding="iso-8859-1"?>
<!-- Generator: Adobe Illustrator 16.0.0, SVG Export Plug-In . SVG Version: 6.00 Build 0)  -->
<!DOCTYPE svg PUBLIC "-//W3C//DTD SVG 1.1//EN" "http://www.w3.org/Graphics/SVG/1.1/DTD/svg11.dtd">
<svg version="1.1" id="Layer_1" xmlns="http://www.w3.org/2000/svg" xmlns:xlink="http://www.w3.org/1999/xlink" x="0px" y="0px"
	 width="64px" height="64px" viewBox="0 0 64 64" style="enable-background:new 0 0 64 64;" xml:space="preserve">
<path id="shovel_x5F_pail" style="fill:#E6E6E6;" d="M41.048,21.959H32v-4.524c0-6.247-5.063-11.31-11.31-11.31
	s-11.31,5.062-11.31,11.31v4.524H0.332v5.85h40.716V21.959z M27.477,21.959H13.905v-4.524c0-3.742,3.044-6.786,6.786-6.786
	s6.786,3.043,6.786,6.786V21.959z M54.881,36.856V16.384c0.26-0.038,2.516-0.088,2.767-0.15c3.452-0.849,6.021-3.938,6.021-7.652
	c0-4.372-3.548-7.917-7.916-7.917h-6.787c-4.374,0-7.917,3.545-7.917,7.917c0,3.673,2.509,6.735,5.905,7.624
	c0.288,0.075,2.582,0.135,2.881,0.178v20.472c-0.283,0-2.562,0.018-2.837,0.052c-3.356,0.412-5.949,3.269-5.949,6.734V64h22.62
	V43.643c0-3.516-2.673-6.404-6.096-6.751C57.345,36.868,55.114,36.856,54.881,36.856z M48.965,11.975
	c-1.873,0-3.394-1.522-3.394-3.393c0-1.871,1.521-3.393,3.394-3.393h6.787c1.867,0,3.392,1.522,3.392,3.393
	c0,1.871-1.524,3.393-3.392,3.393H48.965z M7.119,64h27.144l4.523-33.929H2.594L7.119,64z"/>
</svg>
