<?xml version="1.0" encoding="utf-8"?>
<!-- Generator: Adobe Illustrator 16.0.0, SVG Export Plug-In . SVG Version: 6.00 Build 0)  -->
<!DOCTYPE svg PUBLIC "-//W3C//DTD SVG 1.1//EN" "http://www.w3.org/Graphics/SVG/1.1/DTD/svg11.dtd">
<svg version="1.1" id="Layer_1" xmlns="http://www.w3.org/2000/svg" xmlns:xlink="http://www.w3.org/1999/xlink" x="0px" y="0px"
	 width="95px" height="95px" viewBox="0 0 95 95" enable-background="new 0 0 95 95" xml:space="preserve">
<g>
	<path fill="none" stroke="#0071BC" stroke-miterlimit="10" stroke-dasharray="2.4171" d="M17.5,52v11.021
		c0,1.328,1.478,3.479,2.806,3.479h21.569c2.625,0,3.625-2.15,3.625-3.479V52"/>
</g>
<g>
	<path fill="none" stroke="#0071BC" stroke-miterlimit="10" stroke-dasharray="2.4171" d="M50.5,52v11.021
		c0,1.33,1.109,3.479,2.438,3.479l20.938,0.25c3.375,0,3.625-2.4,3.625-3.729V52"/>
</g>
<g>
	<path fill="none" stroke="#0071BC" stroke-miterlimit="10" d="M77.5,52V40.056c0-1.329-0.002-3.556-2.957-3.556H52.938
		c-2.523,0-2.438,2.227-2.438,3.556V52"/>
</g>
<g>
	<path fill="none" stroke="#0071BC" stroke-miterlimit="10" d="M45.5,52V40.056c0-1.329-0.436-3.556-3.392-3.556H20.503
		c-2.524,0-3.003,2.227-3.003,3.556V52"/>
</g>
<line fill="none" stroke="#0071BC" stroke-width="0.987" stroke-miterlimit="10" x1="3" y1="52.5" x2="90.667" y2="52.5"/>
<rect x="4" y="52" opacity="0.3" fill="#FFFFFF" enable-background="new    " width="87" height="40.667"/>
<g>
	<path fill="none" stroke="#338FCF" stroke-width="2" stroke-miterlimit="10" d="M91,5v80.525C91,89.368,88.131,93,84.288,93H11.025
		C7.182,93,4,89.368,4,85.525V5"/>
</g>
</svg>
