<?xml version="1.0" encoding="utf-8"?>
<!-- Generator: Adobe Illustrator 16.1.0, SVG Export Plug-In . SVG Version: 6.00 Build 0)  -->
<!DOCTYPE svg PUBLIC "-//W3C//DTD SVG 1.1//EN" "http://www.w3.org/Graphics/SVG/1.1/DTD/svg11.dtd">
<svg version="1.1" id="Layer_1" xmlns="http://www.w3.org/2000/svg" xmlns:xlink="http://www.w3.org/1999/xlink" x="0px" y="0px"
	 width="285.107px" height="99px" viewBox="0 0 285.107 99" enable-background="new 0 0 285.107 99" xml:space="preserve">
<linearGradient id="SVGID_1_" gradientUnits="userSpaceOnUse" x1="846.9995" y1="-2036.4966" x2="846.9995" y2="-2068.8962" gradientTransform="matrix(1 0 0 -1 -798 -1982.2539)">
	<stop  offset="0" style="stop-color:#B95200"/>
	<stop  offset="1" style="stop-color:#FFAA23"/>
</linearGradient>
<polygon opacity="0.2" fill="url(#SVGID_1_)" enable-background="new    " points="5.5,51.5 92.5,51.5 92.5,88.373 88.088,92.04 
	9.876,92.373 5.5,88.373 "/>
<g>
	<path fill="none" stroke="#53AEE0" stroke-width="2" stroke-miterlimit="10" d="M92.5,4.5v80.398c0,3.843-2.361,7.602-6.204,7.602
		H13.033C9.19,92.5,5.5,88.741,5.5,84.898V4.5"/>
</g>
<polyline fill="none" stroke="#B56E08" stroke-miterlimit="10" points="6.5,52 50.675,52 91.5,52 "/>
<line fill="none" stroke="#B56E08" stroke-miterlimit="10" stroke-dasharray="2" x1="49" y1="10.5" x2="49" y2="91.5"/>
<line fill="none" stroke="#B56E08" stroke-miterlimit="10" stroke-dasharray="2" x1="6.5" y1="31" x2="91.5" y2="31"/>
<line fill="none" stroke="#B56E08" stroke-miterlimit="10" stroke-dasharray="2" x1="6.5" y1="11" x2="91.5" y2="11"/>
<line fill="none" stroke="#B56E08" stroke-miterlimit="10" stroke-dasharray="2" x1="6.5" y1="72" x2="91.5" y2="72"/>
<g enable-background="new    ">
	<path fill="#D95D5D" d="M124.805,5.5c1.233,0,2.384,0.201,3.456,0.523c1.071,0.323,2.011,0.833,2.818,1.495
		c0.807,0.661,1.438,1.485,1.894,2.454c0.454,0.968,0.682,2.118,0.682,3.439c0,0.939-0.168,1.837-0.506,2.688
		c-0.338,0.852-0.799,1.603-1.387,2.247c-0.588,0.646-1.039,1.167-1.845,1.562c-0.808,0.396-2.417,0.625-2.417,0.684v0.088
		c1,0.029,1.756,0.228,2.682,0.595c0.924,0.367,1.607,0.88,2.299,1.541c0.688,0.66,1.178,1.468,1.588,2.421
		c0.412,0.954,0.586,2.033,0.586,3.236c0,1.408-0.271,2.649-0.785,3.72c-0.514,1.072-1.234,1.959-2.145,2.665
		c-0.911,0.703-2.007,1.482-3.284,1.849c-1.277,0.368-2.668,0.794-4.165,0.794H111.5v-32H124.805z M124.805,20.5
		c1.057,0,2.062-0.292,3.016-0.57c0.953-0.279,1.797-0.782,2.531-1.354c0.733-0.572,1.321-1.321,1.762-2.173
		c0.439-0.852,0.66-1.853,0.66-2.969c0-1.203-0.205-2.247-0.616-3.114c-0.411-0.865-0.976-1.589-1.695-2.162
		c-0.72-0.572-1.563-0.98-2.532-1.259c-0.969-0.278-2.011-0.4-3.126-0.4H112.5v14L124.805,20.5L124.805,20.5z M124.673,36.5
		c1.291,0,2.487-0.336,3.588-0.646c1.1-0.309,2.053-0.869,2.862-1.5c0.807-0.631,1.445-1.47,1.916-2.423
		c0.469-0.954,0.704-2.099,0.704-3.391c0-1.38-0.257-2.549-0.771-3.49c-0.515-0.938-1.188-1.708-2.025-2.295
		c-0.838-0.587-1.791-0.804-2.862-1.068c-1.072-0.264-2.165-0.187-3.28-0.187H112.5v15L124.673,36.5L124.673,36.5z"/>
	<path fill="#D95D5D" d="M138.014,21.231c0.439-1.424,1.092-2.679,1.959-3.765c0.865-1.086,1.93-1.959,3.191-2.62
		c1.262-0.66,2.729-0.99,4.402-0.99c1.644,0,3.097,0.33,4.357,0.99c1.264,0.661,2.324,1.534,3.19,2.62
		c0.863,1.086,1.521,2.341,1.959,3.765c0.439,1.424,0.658,2.913,0.658,4.469c0,1.556-0.219,3.045-0.658,4.468
		c-0.438,1.425-1.096,2.68-1.959,3.765c-0.866,1.086-1.932,1.952-3.19,2.598c-1.263,0.646-2.729,0.969-4.402,0.969
		c-1.645,0-3.098-0.323-4.357-0.969c-1.262-0.646-2.326-1.512-3.191-2.598c-0.867-1.085-1.52-2.34-1.959-3.765
		c-0.44-1.423-0.66-2.912-0.66-4.468C137.354,24.144,137.573,22.654,138.014,21.231z M138.827,29.837
		c0.396,1.321,0.991,2.488,1.782,3.501c0.793,1.012,1.77,1.819,2.929,2.421c1.159,0.603,2.502,0.902,4.028,0.902
		c1.496,0,2.824-0.302,3.982-0.902c1.16-0.601,2.137-1.409,2.93-2.421c0.793-1.013,1.387-2.18,1.781-3.501
		c0.396-1.32,0.596-2.7,0.596-4.138c0-1.409-0.197-2.774-0.596-4.095c-0.396-1.321-0.988-2.488-1.781-3.5
		c-0.793-1.013-1.77-1.827-2.93-2.444c-1.158-0.616-2.486-0.924-3.982-0.924c-1.526,0-2.869,0.308-4.028,0.924
		c-1.159,0.617-2.136,1.432-2.929,2.444s-1.387,2.179-1.782,3.5c-0.396,1.32-0.595,2.686-0.595,4.095
		C138.232,27.137,138.432,28.517,138.827,29.837z"/>
	<path fill="#D95D5D" d="M177.5,37.5v-6h0.094c-0.411,2-1.313,3.175-2.709,4.32c-1.395,1.145-3.206,1.697-5.438,1.697
		c-1.174,0-2.252-0.179-3.234-0.517c-0.983-0.337-1.836-0.856-2.555-1.545c-0.721-0.688-1.223-1.543-1.619-2.556
		c-0.396-1.013-0.539-2.183-0.539-3.502V14.5h1v14.765c0,1.321,0.076,2.443,0.457,3.368c0.383,0.925,0.847,1.688,1.504,2.29
		c0.66,0.603,1.396,1.042,2.263,1.32s1.771,0.418,2.737,0.418c1.351,0,2.531-0.256,3.56-0.771c1.026-0.514,1.883-1.203,2.571-2.07
		c0.689-0.865,1.121-1.871,1.474-3.016c0.351-1.145,0.437-2.348,0.437-3.61V14.5h1v23H177.5z"/>
	<path fill="#D95D5D" d="M183.5,37.014V14.5h1v5h-0.127c0.205,0,0.527-1.413,0.969-2.161c0.439-0.749,1.027-1.282,1.763-1.841
		c0.731-0.557,1.724-0.937,2.735-1.26c1.013-0.323,1.66-0.41,3.66-0.38v0.881c-2-0.088-3.016,0.125-4.146,0.638
		c-1.131,0.515-2.119,1.219-2.853,2.113c-0.733,0.896-1.199,1.931-1.553,3.104c-0.354,1.173-0.449,2.377-0.449,3.61V37.5h-1.098
		L183.5,37.014z"/>
	<path fill="#D95D5D" d="M195.775,20.5c0.525-2,1.57-3.601,3.125-4.863c1.557-1.262,3.537-1.838,5.941-1.838
		c1.559,0,2.938,0.351,4.141,0.997s2.209,1.526,3.018,2.612c0.808,1.086,1.422,2.356,1.851,3.793
		c0.424,1.438,0.637,2.953,0.637,4.538c0,1.702-0.219,3.273-0.657,4.713c-0.438,1.438-1.078,2.68-1.916,3.721
		c-0.836,1.042-1.851,1.856-3.037,2.443c-1.188,0.587-2.531,0.882-4.027,0.882c-2.318,0-4.266-0.718-5.832-1.98
		c-1.57-1.262-2.65-3.018-3.236-5.018H195.5v7h-1v-32h1v15H195.775z M196.305,29.926c0.409,1.32,1.004,2.48,1.782,3.478
		c0.775,0.999,1.738,1.792,2.884,2.378s2.438,0.88,3.875,0.88c1.467,0,2.752-0.293,3.854-0.88c1.1-0.587,2.01-1.388,2.729-2.399
		c0.721-1.012,1.264-2.18,1.631-3.501c0.363-1.32,0.551-2.699,0.551-4.138c0-1.321-0.17-2.635-0.508-3.94
		c-0.338-1.305-0.857-2.48-1.562-3.522s-1.604-1.894-2.707-2.554c-1.104-0.66-2.432-0.99-3.983-0.99
		c-2.761,0-4.978,0.946-6.646,2.84c-1.675,1.893-2.511,4.615-2.511,8.167C195.688,27.211,195.893,28.605,196.305,29.926z"/>
	<path fill="#D95D5D" d="M217.919,21.231c0.441-1.424,1.095-2.679,1.961-3.765c0.865-1.086,1.931-1.959,3.191-2.62
		c1.262-0.66,2.729-0.99,4.402-0.99c1.643,0,3.096,0.33,4.355,0.99c1.262,0.661,2.325,1.534,3.19,2.62
		c0.864,1.086,1.521,2.341,1.959,3.765c0.438,1.424,0.66,2.913,0.66,4.469c0,1.556-0.222,3.045-0.66,4.468
		c-0.438,1.425-1.095,2.68-1.959,3.765c-0.865,1.086-1.931,1.952-3.19,2.598c-1.265,0.646-2.729,0.969-4.4,0.969
		c-1.646,0-3.098-0.323-4.357-0.969c-1.264-0.646-2.326-1.512-3.191-2.598c-0.866-1.085-1.52-2.34-1.961-3.765
		c-0.438-1.423-0.66-2.912-0.66-4.468C217.259,24.144,217.48,22.654,217.919,21.231z M218.734,29.837
		c0.396,1.321,0.99,2.488,1.783,3.501c0.793,1.012,1.77,1.819,2.928,2.421c1.16,0.603,2.502,0.902,4.029,0.902
		c1.496,0,2.822-0.302,3.982-0.902c1.158-0.602,2.135-1.409,2.928-2.421c0.795-1.013,1.389-2.18,1.783-3.501
		c0.396-1.32,0.596-2.7,0.596-4.138c0-1.409-0.197-2.774-0.596-4.095c-0.396-1.321-0.988-2.488-1.783-3.5
		c-0.793-1.013-1.77-1.827-2.928-2.444c-1.16-0.616-2.486-0.924-3.982-0.924c-1.527,0-2.869,0.308-4.029,0.924
		c-1.158,0.617-2.135,1.432-2.928,2.444s-1.389,2.179-1.783,3.5c-0.396,1.32-0.594,2.686-0.594,4.095
		C218.141,27.137,218.339,28.517,218.734,29.837z"/>
	<path fill="#D95D5D" d="M242.5,14.384V19.5h-0.231c0.205,0,0.535-1.45,0.989-2.185c0.455-0.732,1.027-1.26,1.718-1.819
		c0.688-0.557,1.489-0.93,2.399-1.239c0.908-0.308,1.922-0.432,3.037-0.432c1.174,0,2.252,0.19,3.236,0.543
		c0.98,0.353,1.834,0.881,2.553,1.569c0.719,0.69,1.293,1.544,1.689,2.558c0.396,1.013,0.607,2.184,0.607,3.504V37.5h-1V22.133
		c0-1.321-0.146-2.443-0.527-3.368c-0.381-0.925-0.881-1.688-1.539-2.29c-0.66-0.601-1.414-1.041-2.277-1.32
		c-0.865-0.278-1.777-0.418-2.748-0.418c-1.35,0-2.535,0.257-3.562,0.771c-1.025,0.514-1.885,1.203-2.572,2.069
		c-0.689,0.865-1.053,1.871-1.402,3.016c-0.352,1.145-0.367,2.349-0.367,3.61V37.5h-1v-23h0.681L242.5,14.384z"/>
</g>
<g enable-background="new    ">
	<path fill="#41A8DF" d="M121.309,44.5l19.988,33h0.203v-33h10v48h-10.737l-19.922-32h-0.34v32h-10v-48H121.309z"/>
	<path fill="#41A8DF" d="M196.5,44.5v9h-25v11h23v8h-23v11h25v9h-36v-48H196.5z"/>
	<path fill="#41A8DF" d="M227.891,44.5l17.909,48h-10.934l-3.623-10h-17.908l-3.756,10h-10.6l18.109-48H227.891z M228.494,74.5
		l-6.037-18h-0.133l-6.238,18H228.494z"/>
	<path fill="#41A8DF" d="M240.5,53.5v-9h39v9h-15v39h-10v-39H240.5z"/>
</g>
</svg>
