<?xml version="1.0" encoding="iso-8859-1"?>
<!-- Generator: Adobe Illustrator 16.1.0, SVG Export Plug-In . SVG Version: 6.00 Build 0)  -->
<!DOCTYPE svg PUBLIC "-//W3C//DTD SVG 1.1//EN" "http://www.w3.org/Graphics/SVG/1.1/DTD/svg11.dtd">
<svg version="1.1" id="Layer_1" xmlns="http://www.w3.org/2000/svg" xmlns:xlink="http://www.w3.org/1999/xlink" x="0px" y="0px"
	 width="321.214px" height="99px" viewBox="0 15.422 321.214 99" style="enable-background:new 0 15.422 321.214 99;"
	 xml:space="preserve">
<linearGradient id="SVGID_1_" gradientUnits="userSpaceOnUse" x1="807.001" y1="2012.4961" x2="807.001" y2="2044.8958" gradientTransform="matrix(1 0 0 1 -748 -1942.2539)">
	<stop  offset="0" style="stop-color:#B95200"/>
	<stop  offset="1" style="stop-color:#FFAA23"/>
</linearGradient>
<polygon style="opacity:0.2;fill:url(#SVGID_1_);enable-background:new    ;" points="15.5,67.5 102.5,67.5 102.5,104.373 
	98.088,108.04 19.876,108.373 15.5,104.373 "/>
<g>
	<path style="fill:none;stroke:#53AEE0;stroke-width:2;stroke-miterlimit:10;" d="M102.5,20.5v80.398
		c0,3.843-2.361,7.602-6.204,7.602H23.033c-3.843,0-7.533-3.759-7.533-7.602V20.5"/>
</g>
<polyline style="fill:none;stroke:#B56E08;stroke-miterlimit:10;" points="16.5,68 60.675,68 101.5,68 "/>
<line style="fill:none;stroke:#B56E08;stroke-miterlimit:10;stroke-dasharray:2;" x1="59" y1="26.5" x2="59" y2="107.5"/>
<line style="fill:none;stroke:#B56E08;stroke-miterlimit:10;stroke-dasharray:2;" x1="16.5" y1="47" x2="101.5" y2="47"/>
<line style="fill:none;stroke:#B56E08;stroke-miterlimit:10;stroke-dasharray:2;" x1="16.5" y1="27" x2="101.5" y2="27"/>
<line style="fill:none;stroke:#B56E08;stroke-miterlimit:10;stroke-dasharray:2;" x1="16.5" y1="88" x2="101.5" y2="88"/>
<g style="enable-background:new    ;">
	<path style="fill:#D95D5D;" d="M134.805,21.5c1.233,0,2.384,0.201,3.456,0.523c1.071,0.323,2.011,0.833,2.818,1.495
		c0.807,0.661,1.438,1.485,1.894,2.454c0.454,0.968,0.682,2.118,0.682,3.439c0,0.939-0.168,1.837-0.506,2.688
		c-0.338,0.852-0.799,1.603-1.387,2.247c-0.588,0.646-1.039,1.167-1.845,1.562c-0.808,0.396-2.417,0.625-2.417,0.684v0.088
		c1,0.029,1.756,0.228,2.682,0.595c0.924,0.367,1.607,0.88,2.299,1.541c0.688,0.66,1.178,1.468,1.588,2.421
		c0.412,0.954,0.586,2.033,0.586,3.236c0,1.408-0.271,2.649-0.785,3.72c-0.514,1.072-1.234,1.96-2.145,2.664
		s-2.007,1.483-3.284,1.849c-1.277,0.368-2.668,0.794-4.165,0.794H121.5v-32H134.805z M134.805,36.5c1.057,0,2.062-0.292,3.016-0.57
		c0.953-0.279,1.797-0.782,2.531-1.354c0.733-0.572,1.321-1.321,1.762-2.173c0.439-0.852,0.66-1.853,0.66-2.969
		c0-1.203-0.205-2.247-0.616-3.114c-0.411-0.865-0.976-1.589-1.695-2.162c-0.72-0.572-1.563-0.98-2.532-1.259
		c-0.969-0.278-2.011-0.4-3.126-0.4H122.5v14L134.805,36.5L134.805,36.5z M134.673,52.5c1.291,0,2.487-0.336,3.588-0.646
		c1.1-0.309,2.053-0.869,2.862-1.501c0.807-0.631,1.445-1.469,1.916-2.423c0.469-0.954,0.704-2.099,0.704-3.391
		c0-1.38-0.257-2.549-0.771-3.49c-0.515-0.938-1.188-1.708-2.025-2.295c-0.838-0.587-1.791-0.804-2.862-1.068
		c-1.072-0.264-2.165-0.187-3.28-0.187H122.5v15L134.673,52.5L134.673,52.5z"/>
	<path style="fill:#D95D5D;" d="M148.014,37.231c0.439-1.424,1.092-2.679,1.959-3.765c0.865-1.086,1.93-1.959,3.191-2.62
		c1.262-0.66,2.729-0.99,4.402-0.99c1.644,0,3.097,0.33,4.357,0.99c1.264,0.661,2.325,1.534,3.191,2.62
		c0.863,1.086,1.52,2.341,1.959,3.765c0.439,1.424,0.658,2.913,0.658,4.469c0,1.556-0.219,3.045-0.658,4.468
		c-0.439,1.425-1.096,2.68-1.959,3.765c-0.866,1.086-1.932,1.952-3.191,2.598c-1.263,0.646-2.729,0.969-4.402,0.969
		c-1.645,0-3.098-0.323-4.357-0.969c-1.262-0.646-2.326-1.512-3.191-2.598c-0.867-1.085-1.52-2.34-1.959-3.765
		c-0.44-1.423-0.66-2.912-0.66-4.468C147.354,40.144,147.573,38.654,148.014,37.231z M148.827,45.837
		c0.396,1.321,0.991,2.488,1.782,3.501c0.793,1.012,1.77,1.819,2.929,2.421c1.159,0.602,2.502,0.902,4.028,0.902
		c1.496,0,2.824-0.301,3.982-0.902c1.16-0.601,2.137-1.409,2.93-2.421c0.793-1.013,1.387-2.18,1.781-3.501
		c0.396-1.32,0.596-2.7,0.596-4.138c0-1.409-0.197-2.774-0.596-4.095c-0.396-1.321-0.988-2.488-1.781-3.5
		c-0.793-1.013-1.77-1.827-2.93-2.444c-1.158-0.616-2.486-0.924-3.982-0.924c-1.526,0-2.869,0.308-4.028,0.924
		c-1.159,0.617-2.136,1.432-2.929,2.444s-1.387,2.179-1.782,3.5c-0.396,1.32-0.595,2.686-0.595,4.095
		C148.232,43.137,148.432,44.517,148.827,45.837z"/>
	<path style="fill:#D95D5D;" d="M187.5,53.5v-6h0.093c-0.411,2-1.313,3.175-2.708,4.32s-3.207,1.698-5.438,1.698
		c-1.174,0-2.252-0.179-3.235-0.517c-0.983-0.337-1.835-0.856-2.554-1.545c-0.721-0.689-1.223-1.543-1.619-2.556
		c-0.396-1.013-0.539-2.183-0.539-3.502V30.5h1v14.765c0,1.321,0.075,2.443,0.457,3.368c0.382,0.925,0.846,1.688,1.504,2.29
		c0.66,0.602,1.396,1.042,2.262,1.32c0.866,0.279,1.77,0.418,2.737,0.418c1.351,0,2.531-0.256,3.56-0.771
		c1.026-0.513,1.883-1.203,2.572-2.069c0.689-0.865,1.12-1.871,1.473-3.016c0.351-1.145,0.437-2.348,0.437-3.61V30.5h1v23H187.5z"/>
	<path style="fill:#D95D5D;" d="M193.5,53.014V30.5h1v5h-0.127c0.205,0,0.527-1.413,0.969-2.161
		c0.439-0.749,1.027-1.282,1.762-1.841c0.732-0.557,1.723-0.937,2.735-1.26c1.013-0.323,1.661-0.41,3.661-0.38v0.881
		c-2-0.088-3.016,0.125-4.146,0.638c-1.131,0.515-2.119,1.219-2.853,2.113c-0.733,0.896-1.199,1.931-1.552,3.104
		c-0.354,1.173-0.45,2.377-0.45,3.61V53.5h-1.097L193.5,53.014z"/>
	<path style="fill:#D95D5D;" d="M205.775,36.5c0.526-2,1.57-3.601,3.125-4.863c1.557-1.262,3.537-1.838,5.942-1.838
		c1.558,0,2.937,0.351,4.14,0.997s2.209,1.526,3.018,2.612c0.807,1.086,1.422,2.356,1.85,3.793c0.424,1.438,0.637,2.953,0.637,4.538
		c0,1.702-0.219,3.273-0.658,4.713c-0.438,1.438-1.078,2.68-1.915,3.721c-0.837,1.042-1.851,1.856-3.038,2.443
		c-1.188,0.587-2.531,0.882-4.027,0.882c-2.318,0-4.265-0.718-5.832-1.98c-1.57-1.262-2.65-3.018-3.236-5.018H205.5v7h-1v-32h1v15
		H205.775z M206.305,45.926c0.41,1.32,1.004,2.48,1.782,3.478c0.776,0.998,1.739,1.791,2.884,2.378
		c1.146,0.587,2.438,0.88,3.875,0.88c1.467,0,2.752-0.293,3.854-0.88c1.101-0.587,2.01-1.387,2.729-2.399
		c0.721-1.012,1.264-2.18,1.631-3.501c0.364-1.32,0.551-2.699,0.551-4.138c0-1.321-0.17-2.635-0.508-3.94
		c-0.338-1.305-0.857-2.48-1.562-3.522s-1.605-1.894-2.708-2.554s-2.431-0.99-3.983-0.99c-2.76,0-4.977,0.946-6.646,2.84
		c-1.674,1.893-2.51,4.615-2.51,8.167C205.688,43.211,205.893,44.605,206.305,45.926z"/>
	<path style="fill:#D95D5D;" d="M227.92,37.231c0.441-1.424,1.094-2.679,1.96-3.765c0.865-1.086,1.931-1.959,3.192-2.62
		c1.262-0.66,2.729-0.99,4.402-0.99c1.643,0,3.096,0.33,4.356,0.99c1.262,0.661,2.325,1.534,3.19,2.62s1.521,2.341,1.959,3.765
		c0.439,1.424,0.66,2.913,0.66,4.469c0,1.556-0.221,3.045-0.66,4.468c-0.438,1.425-1.094,2.68-1.959,3.765
		c-0.865,1.086-1.931,1.952-3.19,2.598c-1.265,0.646-2.729,0.969-4.401,0.969c-1.646,0-3.098-0.323-4.357-0.969
		c-1.264-0.646-2.327-1.512-3.192-2.598c-0.866-1.085-1.519-2.34-1.96-3.765c-0.439-1.423-0.66-2.912-0.66-4.468
		C227.26,40.144,227.48,38.654,227.92,37.231z M228.734,45.837c0.396,1.321,0.99,2.488,1.783,3.501
		c0.793,1.012,1.769,1.819,2.928,2.421c1.16,0.602,2.502,0.902,4.029,0.902c1.496,0,2.822-0.301,3.982-0.902
		c1.159-0.602,2.135-1.409,2.928-2.421c0.795-1.013,1.389-2.18,1.783-3.501c0.396-1.32,0.596-2.7,0.596-4.138
		c0-1.409-0.197-2.774-0.596-4.095c-0.396-1.321-0.988-2.488-1.783-3.5c-0.793-1.013-1.769-1.827-2.928-2.444
		c-1.16-0.616-2.486-0.924-3.982-0.924c-1.527,0-2.869,0.308-4.029,0.924c-1.159,0.617-2.135,1.432-2.928,2.444
		s-1.389,2.179-1.783,3.5c-0.396,1.32-0.594,2.686-0.594,4.095C228.141,43.137,228.339,44.517,228.734,45.837z"/>
	<path style="fill:#D95D5D;" d="M252.5,30.384V35.5h-0.232c0.205,0,0.535-1.45,0.99-2.185c0.455-0.732,1.027-1.26,1.717-1.819
		c0.689-0.557,1.489-0.93,2.399-1.239c0.909-0.308,1.923-0.432,3.038-0.432c1.174,0,2.252,0.19,3.236,0.543
		c0.98,0.353,1.834,0.881,2.553,1.569c0.719,0.69,1.293,1.544,1.689,2.558c0.396,1.013,0.608,2.184,0.608,3.504V53.5h-1V38.133
		c0-1.321-0.147-2.443-0.528-3.368c-0.381-0.925-0.88-1.688-1.539-2.29c-0.66-0.601-1.414-1.041-2.277-1.32
		c-0.866-0.278-1.778-0.418-2.748-0.418c-1.35,0-2.535,0.257-3.562,0.771c-1.026,0.514-1.886,1.203-2.573,2.069
		c-0.689,0.865-1.053,1.871-1.403,3.016c-0.351,1.145-0.367,2.349-0.367,3.61V53.5h-1v-23h0.681L252.5,30.384z"/>
</g>
<g style="enable-background:new    ;">
	<path style="fill:#41A8DF;" d="M131.309,60.5l19.988,33h0.203v-33h10v48h-10.738l-19.922-32h-0.34v32h-10v-48H131.309z"/>
	<path style="fill:#41A8DF;" d="M206.5,60.5v9h-25v11h23v8h-23v11h25v9h-36v-48H206.5z"/>
	<path style="fill:#41A8DF;" d="M237.891,60.5l17.909,48h-10.934l-3.622-10h-17.908l-3.757,10H208.98l18.109-48H237.891z
		 M238.494,90.5l-6.037-18h-0.134l-6.237,18H238.494z"/>
	<path style="fill:#41A8DF;" d="M250.5,69.5v-9h39v9h-15v39h-10v-39H250.5z"/>
</g>
<g>
	<path style="fill:#DCDCDC;" d="M321.214,101.431c0,2.787-2.281,5.068-5.068,5.068h-26.861c-2.788,0-5.069-2.281-5.069-5.068V90.569
		c0-2.788,2.281-5.069,5.069-5.069h26.861c2.787,0,5.068,2.281,5.068,5.069V101.431z"/>
</g>
<g>
	<path style="fill:#FFFFFF;" d="M296.476,95.565c0,2.41-0.973,4.064-2.964,4.064c-2.015,0-2.901-1.811-2.914-4.018
		c0-2.256,0.96-4.043,2.976-4.043C295.659,91.571,296.476,93.431,296.476,95.565z M292.433,95.613
		c-0.012,1.786,0.42,2.639,1.127,2.639c0.709,0,1.092-0.888,1.092-2.663c0-1.727-0.371-2.639-1.104-2.639
		C292.876,92.95,292.421,93.802,292.433,95.613z"/>
	<path style="fill:#FFFFFF;" d="M297.474,98.526c0-0.646,0.443-1.114,1.079-1.114s1.067,0.456,1.067,1.114
		c0,0.637-0.432,1.104-1.079,1.104C297.917,99.631,297.474,99.163,297.474,98.526z"/>
	<path style="fill:#FFFFFF;" d="M301.073,98.181c0.229,0.023,0.432,0.023,0.791,0c0.553-0.037,1.115-0.191,1.535-0.479
		c0.504-0.349,0.84-0.853,0.983-1.438l-0.036-0.013c-0.348,0.358-0.852,0.563-1.559,0.563c-1.319,0-2.436-0.924-2.436-2.436
		c0-1.523,1.223-2.807,2.938-2.807c2.003,0,2.951,1.535,2.951,3.357c0,1.619-0.518,2.807-1.368,3.586
		c-0.743,0.672-1.763,1.043-2.974,1.092c-0.312,0.023-0.625,0.013-0.828,0v-1.426H301.073z M302.177,94.271
		c0,0.672,0.36,1.248,1.104,1.248c0.492,0,0.841-0.24,1.009-0.517c0.06-0.108,0.096-0.229,0.096-0.456
		c0-0.828-0.312-1.645-1.14-1.645C302.621,92.901,302.165,93.454,302.177,94.271z"/>
	<path style="fill:#FFFFFF;" d="M309.903,99.499c0.024-0.396,0.049-0.982,0.049-1.499v-7.017h1.044v3.646h0.024
		c0.37-0.647,1.043-1.067,1.979-1.067c1.439,0,2.459,1.199,2.445,2.963c0,2.074-1.307,3.105-2.603,3.105
		c-0.839,0-1.511-0.322-1.942-1.091h-0.035l-0.049,0.959L309.903,99.499L309.903,99.499z M310.996,97.172
		c0,0.134,0.024,0.265,0.048,0.384c0.204,0.732,0.814,1.235,1.583,1.235c1.104,0,1.764-0.899,1.764-2.229
		c0-1.164-0.6-2.16-1.728-2.16c-0.721,0-1.393,0.492-1.607,1.297c-0.023,0.119-0.06,0.264-0.06,0.432V97.172L310.996,97.172z"/>
</g>
</svg>
