<?xml version="1.0" encoding="utf-8"?>
<!-- Generator: Adobe Illustrator 17.1.0, SVG Export Plug-In . SVG Version: 6.00 Build 0)  -->
<!DOCTYPE svg PUBLIC "-//W3C//DTD SVG 1.1//EN" "http://www.w3.org/Graphics/SVG/1.1/DTD/svg11.dtd">
<svg version="1.1" id="Layer_1" xmlns="http://www.w3.org/2000/svg" xmlns:xlink="http://www.w3.org/1999/xlink" x="0px" y="0px"
	 viewBox="0 0 261 99" enable-background="new 0 0 261 99" xml:space="preserve">
<g>
	<path fill="#53AEE0" d="M89.9,84.4c0,3.8-2.3,7.5-6.1,7.5H11.3c-3.8,0-7.5-3.7-7.5-7.5V4.9"/>
</g>
<g>
	<path fill="#3D81A6" d="M3.9,85.1c0,3.8,2.3,7.5,6.1,7.5h72.5c3.8,0,7.5-3.7,7.5-7.5V5.5"/>
</g>
<g>
	<path fill="#2B5B75" d="M89.9,6.2v79.5l-43-40.9"/>
</g>
<g enable-background="new    ">
	<path fill="#D1BE8F" d="M109.6,27.6V5h9.3c3.8,0,6.2,2.2,6.2,5.8c0,2.8-1.9,4.8-4,5.2c2.4,0.4,4.4,2.9,4.4,5.6
		c0,3.8-2.4,6.1-6.5,6.1H109.6z M123.1,11c0-2.3-1.5-4.2-4.4-4.2h-7.1v8.4h7.1C121.6,15.2,123.1,13.3,123.1,11z M123.6,21.4
		c0-2.3-1.6-4.5-4.7-4.5h-7.3v8.9h7.3C121.8,25.9,123.6,24.1,123.6,21.4z"/>
	<path fill="#D1BE8F" d="M129.5,19.4c0-4.8,3-8.6,7.8-8.6c4.8,0,7.9,3.8,7.9,8.6c0,4.8-3,8.6-7.9,8.6
		C132.5,28,129.5,24.2,129.5,19.4z M143.3,19.4c0-3.6-2.1-7-6-7c-3.8,0-6,3.4-6,7c0,3.7,2.2,7,6,7C141.2,26.4,143.3,23.1,143.3,19.4
		z"/>
	<path fill="#D1BE8F" d="M160.8,27.6v-2.4c-1.3,1.5-3.5,2.8-5.9,2.8c-3.3,0-5.2-1.6-5.2-5.3V11.3h1.8v11.1c0,3.2,1.6,4.1,4,4.1
		c2.1,0,4.2-1.3,5.3-2.7V11.3h1.8v16.4H160.8z"/>
	<path fill="#D1BE8F" d="M168.1,27.6V11.3h1.8v2.8c1.4-1.8,3.3-3.2,5.5-3.2v1.9c-0.3-0.1-0.5-0.1-0.9-0.1c-1.7,0-3.9,1.5-4.6,2.9
		v11.9H168.1z"/>
	<path fill="#D1BE8F" d="M178.8,27.6V5h1.8v8.9c1.3-1.9,3.4-3,5.7-3c4.4,0,7.3,3.4,7.3,8.6c0,5.3-3,8.6-7.3,8.6
		c-2.4,0-4.5-1.3-5.7-3v2.6H178.8z M185.9,26.4c3.7,0,5.7-3,5.7-7c0-4-2.1-7-5.7-7c-2.3,0-4.4,1.4-5.4,3v8.1
		C181.5,25.1,183.7,26.4,185.9,26.4z"/>
	<path fill="#D1BE8F" d="M197.2,19.4c0-4.8,3-8.6,7.8-8.6c4.8,0,7.9,3.8,7.9,8.6c0,4.8-3,8.6-7.9,8.6
		C200.3,28,197.2,24.2,197.2,19.4z M211.1,19.4c0-3.6-2.1-7-6-7c-3.8,0-6,3.4-6,7c0,3.7,2.2,7,6,7C208.9,26.4,211.1,23.1,211.1,19.4
		z"/>
	<path fill="#D1BE8F" d="M228.5,27.6V16.5c0-3.2-1.6-4.1-4-4.1c-2.1,0-4.3,1.3-5.3,2.8v12.4h-1.8V11.3h1.8v2.5
		c1.2-1.4,3.5-2.9,5.9-2.9c3.3,0,5.2,1.6,5.2,5.3v11.5H228.5z"/>
</g>
<g enable-background="new    ">
	<path fill="#53AEE0" d="M131.4,89.3l-14-34.9h-0.2l0.1,34.9h-7.5V39.8h9.6L133.3,75h0.2l-0.1-35.2h7.3v49.5H131.4z"/>
	<path fill="#53AEE0" d="M148.6,89.3V39.8h22.2v7.4h-14.1v13.1h13.1v6.8h-13.1v14.6h14.8v7.5H148.6z"/>
	<path fill="#53AEE0" d="M202,89.3l-2.4-10.5h-13L184,89.3h-8.4l12.3-49.5h10.7l12.1,49.5H202z M193.2,47.7h-0.3l-5.4,24.5h10.9
		L193.2,47.7z"/>
	<path fill="#53AEE0" d="M226.5,46.9v42.4h-8.2V46.9h-9.3v-7.1h26.8v7.1H226.5z"/>
</g>
<text transform="matrix(1 0 0 1 279.489 27.6284)" fill="#D1BE8F" font-family="'ProximaNova-Light'" font-size="33.8846">Bourbon</text>
<text transform="matrix(1 0 0 1 277.4025 89.2842)" enable-background="new    "><tspan x="0" y="0" fill="#53AEE0" font-family="'AvenirNextCondensed-DemiBold'" font-size="69.8922" letter-spacing="-2">N</tspan><tspan x="38.9" y="0" fill="#53AEE0" font-family="'AvenirNextCondensed-DemiBold'" font-size="69.8922" letter-spacing="1">E</tspan><tspan x="70.7" y="0" fill="#53AEE0" font-family="'AvenirNextCondensed-DemiBold'" font-size="69.8922" letter-spacing="-1">A</tspan><tspan x="104.3" y="0" fill="#53AEE0" font-family="'AvenirNextCondensed-DemiBold'" font-size="69.8922">T</tspan></text>
</svg>
