<?xml version="1.0" encoding="iso-8859-1"?>
<!-- Generator: Adobe Illustrator 16.0.0, SVG Export Plug-In . SVG Version: 6.00 Build 0)  -->
<!DOCTYPE svg PUBLIC "-//W3C//DTD SVG 1.1//EN" "http://www.w3.org/Graphics/SVG/1.1/DTD/svg11.dtd">
<svg version="1.1" id="Layer_1" xmlns="http://www.w3.org/2000/svg" xmlns:xlink="http://www.w3.org/1999/xlink" x="0px" y="0px"
	 width="64px" height="64px" viewBox="0 0 64 64" style="enable-background:new 0 0 64 64;" xml:space="preserve">
<g id="magic_1_">
	<path id="magic" style="fill:#E6E6E6;" d="M12.408,19.579l-12.26-3.597l12.26-3.597l3.597-12.26l3.597,12.26l12.26,3.597
		l-12.26,3.597l-3.597,12.26L12.408,19.579z M62.598,7.689l0.5-0.5l0.391-0.39c0.518-0.518,0.518-1.367,0-1.885L59.72,1.146
		c-0.519-0.518-1.367-0.518-1.885,0l-0.89,0.89l-2.332,2.332l-7.496,7.496l5.654,5.653L62.598,7.689z M42.87,16.112L2.706,56.276
		l-1.723,1.723c-0.518,0.518-0.518,1.366,0,1.885l3.769,3.769c0.518,0.518,1.398,0.518,1.916,0L9,61.352V61.35l39.554-39.585
		L42.87,16.112z M55.982,25.444l-1.783,6.079l-6.078,1.782l6.078,1.783l1.783,6.078l1.782-6.078l6.079-1.783l-6.079-1.782
		L55.982,25.444z M42.656,38.77l-2.689,9.169l-9.169,2.689l9.169,2.69l2.689,9.169l2.69-9.169l9.169-2.69l-9.169-2.689L42.656,38.77
		z"/>
</g>
</svg>
